<svg xmlns="http://www.w3.org/2000/svg" viewBox="0 0 990.13 1004.52">
  <defs>
    <style>
      .cls-1 {
        isolation: isolate;
      }

      .cls-2, .cls-4 {
        fill: #e4b755;
      }

      .cls-3 {
        font-size: 744.03px;
        fill: #fff;
      }

      .cls-3, .cls-4 {
        font-family: Sansation-Bold, Sansation;
        font-weight: 700;
      }

      .cls-4 {
        font-size: 229px;
      }
    </style>
  </defs>
  <g id="Avrundet_rektangel_1" data-name="Avrundet rektangel 1" class="cls-1">
    <g id="Avrundet_rektangel_1-2" data-name="Avrundet rektangel 1">
      <rect class="cls-2" x="24.19" y="3.72" width="952.11" height="747.75" rx="33.47"/>
      <path class="cls-2" d="M1152.66,82a29.79,29.79,0,0,1,29.75,29.76v680.8a29.78,29.78,0,0,1-29.75,29.75H267.5a29.78,29.78,0,0,1-29.75-29.75V111.72A29.78,29.78,0,0,1,267.5,82h885.16m0-7.43H267.5a37.19,37.19,0,0,0-37.19,37.19v680.8a37.19,37.19,0,0,0,37.19,37.19h885.16a37.19,37.19,0,0,0,37.19-37.19V111.72a37.19,37.19,0,0,0-37.19-37.19Z" transform="translate(-209.84 -74.53)"/>
    </g>
  </g>
  <g id="H">
    <text class="cls-3" transform="translate(172.96 628.7) scale(0.7 0.97)">H</text>
  </g>
  <g id="K">
    <text class="cls-3" transform="translate(410.98 628.7) scale(0.8 0.97)">K</text>
  </g>
  <g id="MARKED">
    <text class="cls-4" transform="translate(0 955.54)">MARKED</text>
  </g>
</svg>
